# xmcd CD database file
#
# Track frame offsets:
#	150
#	8164
#	28387
#	52997
#	78996
#	105024
#	117187
#	132981
#	153170
#	179712
#
# Disc length: 2810 seconds
#
# Revision: 0
# Processed by: cddbd v1.5.2PL0 Copyright (c) Steve Scherf et al.
# Submitted via: CDex 1.51
#
DISCID=740af80a
DTITLE=Barrie Lee Hall, Jr. - The Duke Ellington Small Band
DYEAR=1900
DGENRE=Jazz
TTITLE0=G for Groove
TTITLE1=Do Nothin' Till You Hear From Me
TTITLE2=Short Note
TTITLE3=Uncle Soonie
TTITLE4=Heaven
TTITLE5=Monk's Dream
TTITLE6=Thanks for the Beautiful Land on the Delta
TTITLE7=Stand By Me
TTITLE8=Caravan
TTITLE9=The Shepherd
EXTD=
EXTT0=
EXTT1=
EXTT2=
EXTT3=
EXTT4=
EXTT5=
EXTT6=
EXTT7=
EXTT8=
EXTT9=
PLAYORDER=
